# xmcd
# 
# Track frame offsets:
#     150
#     22440
#     41015
# 
# Disc length: 849
# 
# Revision: 1
# Processed by: cddbd v1.5.2PL0 Copyright (c) Steve Scherf et al.
# Submitted via: fre:ac v1.0.31
# 
DISCID=25034f03
DTITLE=長沢ゆりか - My Dear...
DYEAR=1995
DGENRE=Game
TTITLE0=My Dear...
TTITLE1=出せない手紙
TTITLE2=My Dear...(OFF VOCAL)
EXTD=YEAR: 1995
EXTT0=
EXTT1=
EXTT2=
PLAYORDER=
